# xmcd
#
# Track frame offsets: 
#        150
#        14388
#        28539
#
# Disc length: 589 seconds
#
# Revision: 0
# Processed by: cddbd v1.5.2PL0 Copyright (c) Steve Scherf et al.
# Submitted via: ExactAudioCopyFreeDBPlugin 1.0
#
DISCID=18024b03
DTITLE=Blues Flowers - Syrenka blues
DYEAR=2007
DGENRE=Blues
TTITLE0=Syrenka blues
TTITLE1=Syrenka blues (instrumental)
TTITLE2=Trabant blues (live)
EXTD=
EXTT0=
EXTT1=
EXTT2=
PLAYORDER=
